<svg width="512" height="512" viewBox="0 0 512 512" fill="none" xmlns="http://www.w3.org/2000/svg">
<path d="M512 256C512 397.385 397.385 512 256 512C114.615 512 0 397.385 0 256C0 114.615 114.615 0 256 0C397.385 0 512 114.615 512 256ZM10.2444 256C10.2444 391.727 120.273 501.756 256 501.756C391.727 501.756 501.756 391.727 501.756 256C501.756 120.273 391.727 10.2444 256 10.2444C120.273 10.2444 10.2444 120.273 10.2444 256Z" fill="#E8AB16"/>
<path d="M132.984 411.218C161.845 358.172 168.545 347.235 193.282 290.908L231.419 231.027L269.556 171.145C283.471 200.676 279.863 235.675 272.648 258.643C289.14 327.001 302.024 358.719 346.861 411.218C336.038 419.968 329.854 425.983 315.424 428.171C306.147 435.827 291.717 441.842 272.648 440.202C259.764 444.577 245.849 448.405 228.842 441.842L228.129 441.918C213.108 443.514 204.389 444.441 189.675 435.827C175.76 435.827 166.998 434.186 156.691 424.343C147.93 422.155 142.261 420.515 132.984 411.218Z" fill="#E8AB16"/>
<path d="M314.908 84.1943L204.105 260.831C193.282 227.472 188.128 196.848 212.866 158.568L272.648 84.1943L209.258 147.63C205.651 142.162 204.105 137.24 205.651 126.85C210.844 100.05 249.972 77.632 269.556 63.4136L314.908 84.1943Z" fill="#E8AB16"/>
<path d="M274.71 163.489L310.785 103.335C313.362 199.582 366.445 283.252 417.981 294.189C409.735 317.705 404.066 335.204 384.998 346.141C374.691 356.532 366.96 362 351.499 365.828C340.676 370.75 335.523 372.391 321.608 372.391C295.84 309.502 283.471 270.674 285.017 189.739L274.71 163.489Z" fill="#E8AB16"/>
<path d="M251.617 219.264C256.088 229.489 265.762 266.492 272.48 248.905C267.57 279.602 252.884 226.524 251.617 219.264Z" fill="#5F1300"/>
<path d="M197.917 126.235C200.89 104.216 215.753 90.4536 241.021 75.3154C235.076 75.3154 231.36 75.3154 225.414 69.8105C205.349 73.9392 183.054 82.8845 177.852 118.666C185.283 124.171 189.742 126.235 197.917 126.235Z" fill="url(#paint0_radial_1807_12528)"/>
<path d="M198.412 126.809C201.753 106.097 216.452 89.3934 241.842 75.3624L239.837 76.0305C217.12 86.7208 199.748 104.761 197.744 125.473C190.04 125.176 186.385 123.469 178.368 118.123C183.045 100.084 187.053 77.3668 225.138 70.0173C229.147 74.6942 234.492 76.6987 241.174 75.3624C235.828 75.3624 229.147 74.0261 225.806 69.3491C206.43 72.0217 181.04 84.0482 177.031 118.792C183.045 124.137 189.726 126.809 198.412 126.809Z" fill="#5F1300"/>
<path d="M313.522 81.3552L298.832 74.3398L212.157 203.735L267.247 135.919L207.016 246.607L313.522 81.3552Z" fill="url(#paint1_radial_1807_12528)"/>
<path d="M297.336 170.242C306.312 250.419 325.961 304.253 356.077 365.053L364.891 362.715C350.834 345.341 306.612 253.092 297.336 170.242Z" fill="#5F1300"/>
<path d="M313.516 163.941C333.501 240.334 363.829 279.364 402.301 334.602L409.651 323.243C396.429 317.367 334.292 243.36 313.516 163.941Z" fill="#5F1300"/>
<path d="M296.383 137.082C305.28 213.756 350.743 292.526 381.141 351.74L389.296 344.586C379.684 342.128 305.632 216.793 296.383 137.082Z" fill="#5F1300"/>
<path d="M233.464 255.844L155.078 427.88L163.892 433.336L233.464 255.844Z" fill="#5F1300"/>
<path d="M240.861 234.136C229.843 294.936 205.55 381.9 190.859 438.024L202.612 441.921C208.488 378.782 232.829 295.931 240.861 234.136Z" fill="#5F1300"/>
<path d="M240.188 247.14C242.925 308.986 235.29 382.476 228.29 446.212L240.576 447.073C236.759 380.138 246.047 309.21 240.188 247.14Z" fill="#5F1300"/>
<path d="M243.719 229.777C248.126 290.578 262.816 382.987 273.959 441.512L286.2 440.098C263.265 380.965 254.002 291.357 243.719 229.777Z" fill="#5F1300"/>
<path d="M248.139 234.13C251.812 296.49 292.21 381.702 319.767 431.673L330.848 425.977C294.778 380.256 256.22 292.592 248.139 234.13Z" fill="#5F1300"/>
<path d="M249.597 218.397C246.113 247.302 273.824 289.86 285.342 302.827L283.694 292.231C271.515 279.126 248.374 244.274 249.597 218.397Z" fill="#5F1300"/>
<path d="M189.7 345.448C184.803 345.448 180.45 346.025 178.001 338.818L163.922 365.242C169.431 373.649 169.687 373.185 176.42 373.185L189.7 345.448Z" fill="url(#paint2_radial_1807_12528)"/>
<path d="M329.675 321.687C326.212 325.64 317.894 333.714 310.545 330.156L319.524 355.479C329.974 357.488 336.674 355.682 341.436 350.247L329.675 321.687Z" fill="url(#paint3_radial_1807_12528)"/>
<path d="M312.148 265.184C308.673 267.898 300.474 273.137 294.354 268.143L299.63 293.127C308.654 297.484 314.764 297.492 319.543 293.76L312.148 265.184Z" fill="url(#paint4_radial_1807_12528)"/>
<path d="M301.737 211.714C298.901 212.769 294.349 214.317 290.764 208.28L290.759 237.217C296.479 243.69 302.054 238.667 305.954 237.217L301.737 211.714Z" fill="url(#paint5_radial_1807_12528)"/>
<path d="M354.974 311.077C352.621 314.095 348.505 319.377 342.551 316.694L354.97 344.299C363.19 345.795 364.869 340.654 368.104 336.504L354.974 311.077Z" fill="url(#paint6_radial_1807_12528)"/>
<path d="M332.73 262.393C330.517 264.898 326.645 269.28 321.576 266.589L331.023 291.453C338.137 293.237 339.869 288.837 342.911 285.393L332.73 262.393Z" fill="url(#paint7_radial_1807_12528)"/>
<path d="M378.13 305.055C376.304 308.022 374.924 312.282 369.316 310.512L381.072 334.675C388.603 335.134 390.307 329.401 392.818 325.322L378.13 305.055Z" fill="url(#paint8_radial_1807_12528)"/>
<path d="M348.046 255.94C346.921 257.768 346.071 260.392 342.617 259.301L353.197 281.665C357.836 281.947 358.886 278.416 360.433 275.903L348.046 255.94Z" fill="url(#paint9_radial_1807_12528)"/>
<path d="M314.257 212.952C312.758 214.447 311.35 216.785 308.235 214.861L313.552 239.24C317.998 240.675 319.802 237.505 321.863 235.45L314.257 212.952Z" fill="url(#paint10_radial_1807_12528)"/>
<path d="M325.56 213.292C324.485 214.596 323.644 216.652 320.5 214.881L329.689 236.692C333.94 238.051 334.985 235.261 336.463 233.469L325.56 213.292Z" fill="url(#paint11_radial_1807_12528)"/>
<path d="M335.327 212.695C334.674 213.289 334.312 214.568 331.604 211.916L341.895 232.744C345.408 235.517 345.824 233.743 346.721 232.927L335.327 212.695Z" fill="url(#paint12_radial_1807_12528)"/>
<path d="M359.725 254.853C359.205 255.566 359.105 256.891 355.922 254.834L370.169 273.184C374.165 275.199 374.219 273.377 374.934 272.398L359.725 254.853Z" fill="url(#paint13_radial_1807_12528)"/>
<path d="M392.482 288.799C391.865 291.936 391.012 295.617 385.759 296.091L400.828 311.504C407.29 309.252 409.568 301.591 410.416 297.278L392.482 288.799Z" fill="url(#paint14_radial_1807_12528)"/>
<path d="M173.773 379.743C168.596 379.317 162.087 379.438 160.032 371.917L143.192 397.49C148.394 406.495 153.246 407.265 160.365 407.85L173.773 379.743Z" fill="url(#paint15_radial_1807_12528)"/>
<path d="M202.587 389.221C196.633 390.592 189.546 391.753 184.961 384.58L173.205 417.132C181.779 424.758 185.904 423.053 194.091 421.167L202.587 389.221Z" fill="url(#paint16_radial_1807_12528)"/>
<path d="M232.011 394.685C226.546 396.616 216.658 397.722 211.446 390.787L205.842 425.346C214.882 432.391 221.031 430.219 228.546 427.563L232.011 394.685Z" fill="url(#paint17_radial_1807_12528)"/>
<path d="M263.558 394.69C258.264 398.293 247.964 401.146 240.787 395.451L240.791 432.086C252.033 436.778 262.892 434.702 270.172 429.747L263.558 394.69Z" fill="url(#paint18_radial_1807_12528)"/>
<path d="M295.108 386.876C291.36 391.764 283.129 397.116 275.032 394.188L284.086 428.189C295.561 428.958 305.38 424.777 310.533 418.056L295.108 386.876Z" fill="url(#paint19_radial_1807_12528)"/>
<path d="M319.863 378.784C318.052 382.631 312.519 388.501 306.221 387.57L320.473 409.235C328.802 408.237 332.261 405.148 334.751 399.858L319.863 378.784Z" fill="url(#paint20_radial_1807_12528)"/>
<path d="M300.383 348.985C298.516 351.377 295.249 355.563 289.524 352.571L301.727 374.803C309.418 376.998 311.518 374.307 314.085 371.018L300.383 348.985Z" fill="url(#paint21_radial_1807_12528)"/>
<path d="M210.403 356.843C205.826 357.379 200.228 360.244 197.182 353.226L186.902 380.716C192.935 388.613 196.45 386.392 202.744 385.655L210.403 356.843Z" fill="url(#paint22_radial_1807_12528)"/>
<path d="M235.715 358.832C231.273 360.12 223.5 362.375 219.458 355.948L213.365 385.578C220.487 392.378 225.484 390.928 231.592 389.157L235.715 358.832Z" fill="url(#paint23_radial_1807_12528)"/>
<path d="M259.25 357.867C255.397 360.228 248.654 364.358 243.391 359.405L244.545 388.681C252.772 393.181 257.107 390.526 262.406 387.281L259.25 357.867Z" fill="url(#paint24_radial_1807_12528)"/>
<path d="M279.757 350.674C276.549 353.946 270.935 359.671 264.707 356.201L272.44 384.33C281.444 386.606 285.053 382.926 289.464 378.427L279.757 350.674Z" fill="url(#paint25_radial_1807_12528)"/>
<path d="M193.138 290.508L269.307 170.242C288.683 199.64 279.329 239.061 274.652 258.437C290.688 322.578 310.732 366.676 346.812 410.773C323.427 388.724 286.679 332.6 271.98 259.105C277.325 229.039 279.997 201.645 269.307 176.255L197.147 292.512C175.098 339.282 159.062 366.676 134.341 410.773C145.031 420.127 149.708 422.8 161.735 424.804C173.762 435.621 182.448 436.162 197.147 435.494C211.846 443.512 219.864 441.507 234.563 440.171C252.603 446.778 261.957 442.844 277.325 437.499C295.365 442.176 314.073 430.817 320.755 422.8C332.113 422.8 338.126 418.123 347.48 410.773C340.799 422.8 335.454 426.14 324.095 427.477C310.732 440.839 298.037 446.184 278.661 442.176C262.625 448.857 252.603 453.534 234.563 446.184C220.532 448.857 209.842 450.861 195.142 442.176C180.443 440.839 166.412 437.499 157.726 431.485C146.367 426.14 139.686 424.804 131 412.777C155.722 366.676 171.089 338.614 193.138 290.508Z" fill="#5F1300"/>
<path d="M311.416 101.427L274 163.564L274.668 164.232L276.177 163.564L293.824 134.997L310.255 107.006C309.037 193.414 370.214 287.17 416.316 293.851C414.312 307.815 406.401 319.377 402.141 324.245C396.656 330.513 392.405 340.675 381.451 341.892C377.8 353.453 368.673 355.887 357.111 355.887C352.242 364.674 338.401 370.492 323.033 370.492C298.312 307.436 283.909 268.604 285.914 189.763L275.336 164.232L274.668 164.9L284.022 190.29C280.681 267.126 294.044 315.9 322.107 373.36C338.811 374.697 346.16 369.936 360.191 364.674L360.56 364.536C371.051 360.603 378.301 357.885 384.245 348.639C394.935 344.63 399.707 338.241 406.401 330.33C413.095 316.334 418.988 308.551 418.988 292.515C362.864 276.48 317.43 200.312 311.416 101.427Z" fill="#5F1300"/>
<path d="M203.819 263.779C189.118 225.695 187.113 198.301 211.168 157.544L272.274 84.6097C272.027 84.8081 271.781 85.0059 271.536 85.2031L209.161 149.526C189.117 124.137 220.52 92.0663 269.295 62L316.733 82.7124L314.061 84.0487L269.295 65.3407C226.533 94.7043 197.134 119.46 209.161 145.518C232.267 118.561 246.741 105.168 271.536 85.2031L273.303 83.3805L272.274 84.6097C273.052 83.984 273.841 83.3518 274.64 82.7124L245.909 121.465L213.838 160.217C191.121 195.628 194.462 228.367 203.819 257.097L258.604 171.575L313.392 84.7168L316.733 83.3805L203.819 263.779Z" fill="#5F1300"/>
<defs>
<radialGradient id="paint0_radial_1807_12528" cx="0" cy="0" r="1" gradientUnits="userSpaceOnUse" gradientTransform="translate(209.436 98.0227) rotate(90) scale(28.2122 31.5847)">
<stop stop-color="#CC4E00"/>
<stop offset="1" stop-color="#661414"/>
</radialGradient>
<radialGradient id="paint1_radial_1807_12528" cx="0" cy="0" r="1" gradientTransform="matrix(-2.57085 98.5435 -60.9259 -1.54162 262.84 148.063)" gradientUnits="userSpaceOnUse">
<stop stop-color="#CC4E00"/>
<stop offset="1" stop-color="#661414"/>
</radialGradient>
<radialGradient id="paint2_radial_1807_12528" cx="0" cy="0" r="1" gradientUnits="userSpaceOnUse" gradientTransform="translate(178.919 356.234) rotate(90) scale(17.4153 14.9976)">
<stop stop-color="#CC4E00"/>
<stop offset="1" stop-color="#661414"/>
</radialGradient>
<radialGradient id="paint3_radial_1807_12528" cx="0" cy="0" r="1" gradientTransform="matrix(13.0138 12.8207 -10.2965 11.7525 326.107 340.068)" gradientUnits="userSpaceOnUse">
<stop stop-color="#CC4E00"/>
<stop offset="1" stop-color="#661414"/>
</radialGradient>
<radialGradient id="paint4_radial_1807_12528" cx="0" cy="0" r="1" gradientTransform="matrix(10.1542 14.7138 -10.333 8.06882 307.065 280.86)" gradientUnits="userSpaceOnUse">
<stop stop-color="#CC4E00"/>
<stop offset="1" stop-color="#661414"/>
</radialGradient>
<radialGradient id="paint5_radial_1807_12528" cx="0" cy="0" r="1" gradientTransform="matrix(5.23093 15.8426 -9.51579 3.53835 296.997 223.75)" gradientUnits="userSpaceOnUse">
<stop stop-color="#CC4E00"/>
<stop offset="1" stop-color="#661414"/>
</radialGradient>
<radialGradient id="paint6_radial_1807_12528" cx="0" cy="0" r="1" gradientTransform="matrix(12.2465 10.749 -7.68832 9.86451 354.755 327.497)" gradientUnits="userSpaceOnUse">
<stop stop-color="#CC4E00"/>
<stop offset="1" stop-color="#661414"/>
</radialGradient>
<radialGradient id="paint7_radial_1807_12528" cx="0" cy="0" r="1" gradientTransform="matrix(10.161 10.1096 -7.23093 8.18467 331.697 276.744)" gradientUnits="userSpaceOnUse">
<stop stop-color="#CC4E00"/>
<stop offset="1" stop-color="#661414"/>
</radialGradient>
<radialGradient id="paint8_radial_1807_12528" cx="0" cy="0" r="1" gradientTransform="matrix(11.4968 7.96832 -5.94955 9.66715 379.853 320.04)" gradientUnits="userSpaceOnUse">
<stop stop-color="#CC4E00"/>
<stop offset="1" stop-color="#661414"/>
</radialGradient>
<radialGradient id="paint9_radial_1807_12528" cx="0" cy="0" r="1" gradientTransform="matrix(9.86522 6.83747 -4.77878 7.76481 350.777 268.91)" gradientUnits="userSpaceOnUse">
<stop stop-color="#CC4E00"/>
<stop offset="1" stop-color="#661414"/>
</radialGradient>
<radialGradient id="paint10_radial_1807_12528" cx="0" cy="0" r="1" gradientTransform="matrix(8.06942 9.11162 -6.3682 6.35136 314.031 226.24)" gradientUnits="userSpaceOnUse">
<stop stop-color="#CC4E00"/>
<stop offset="1" stop-color="#661414"/>
</radialGradient>
<radialGradient id="paint11_radial_1807_12528" cx="0" cy="0" r="1" gradientTransform="matrix(8.89422 8.26329 -4.56555 5.53985 327.764 225.122)" gradientUnits="userSpaceOnUse">
<stop stop-color="#CC4E00"/>
<stop offset="1" stop-color="#661414"/>
</radialGradient>
<radialGradient id="paint12_radial_1807_12528" cx="0" cy="0" r="1" gradientTransform="matrix(8.12347 10.0616 -2.77154 2.52346 338.739 222.878)" gradientUnits="userSpaceOnUse">
<stop stop-color="#CC4E00"/>
<stop offset="1" stop-color="#661414"/>
</radialGradient>
<radialGradient id="paint13_radial_1807_12528" cx="0" cy="0" r="1" gradientTransform="matrix(9.9711 8.23438 -2.21107 3.02662 365.104 264.148)" gradientUnits="userSpaceOnUse">
<stop stop-color="#CC4E00"/>
<stop offset="1" stop-color="#661414"/>
</radialGradient>
<radialGradient id="paint14_radial_1807_12528" cx="0" cy="0" r="1" gradientTransform="matrix(11.926 2.64021 -1.96457 9.99372 397.375 300.311)" gradientUnits="userSpaceOnUse">
<stop stop-color="#CC4E00"/>
<stop offset="1" stop-color="#661414"/>
</radialGradient>
<radialGradient id="paint15_radial_1807_12528" cx="0" cy="0" r="1" gradientTransform="matrix(-1.28918 17.6612 -15.8543 -1.30329 159.714 389.658)" gradientUnits="userSpaceOnUse">
<stop stop-color="#CC4E00"/>
<stop offset="1" stop-color="#661414"/>
</radialGradient>
<radialGradient id="paint16_radial_1807_12528" cx="0" cy="0" r="1" gradientTransform="matrix(4.03485 19.7225 -17.8215 4.10592 186.592 402.245)" gradientUnits="userSpaceOnUse">
<stop stop-color="#CC4E00"/>
<stop offset="1" stop-color="#661414"/>
</radialGradient>
<radialGradient id="paint17_radial_1807_12528" cx="0" cy="0" r="1" gradientTransform="matrix(6.04643 19.2727 -16.1089 5.69148 218.796 409.599)" gradientUnits="userSpaceOnUse">
<stop stop-color="#CC4E00"/>
<stop offset="1" stop-color="#661414"/>
</radialGradient>
<radialGradient id="paint18_radial_1807_12528" cx="0" cy="0" r="1" gradientTransform="matrix(11.6252 19.2359 -16.073 10.9392 252.8 414.423)" gradientUnits="userSpaceOnUse">
<stop stop-color="#CC4E00"/>
<stop offset="1" stop-color="#661414"/>
</radialGradient>
<radialGradient id="paint19_radial_1807_12528" cx="0" cy="0" r="1" gradientTransform="matrix(16.1856 13.975 -11.7242 15.2919 290.863 408.625)" gradientUnits="userSpaceOnUse">
<stop stop-color="#CC4E00"/>
<stop offset="1" stop-color="#661414"/>
</radialGradient>
<radialGradient id="paint20_radial_1807_12528" cx="0" cy="0" r="1" gradientTransform="matrix(13.735 7.27015 -5.67789 12.0585 320.311 394.086)" gradientUnits="userSpaceOnUse">
<stop stop-color="#CC4E00"/>
<stop offset="1" stop-color="#661414"/>
</radialGradient>
<radialGradient id="paint21_radial_1807_12528" cx="0" cy="0" r="1" gradientTransform="matrix(11.5806 10.1201 -5.71731 7.32592 301.454 362.243)" gradientUnits="userSpaceOnUse">
<stop stop-color="#CC4E00"/>
<stop offset="1" stop-color="#661414"/>
</radialGradient>
<radialGradient id="paint22_radial_1807_12528" cx="0" cy="0" r="1" gradientTransform="matrix(1.82995 17.6074 -14.0172 1.64062 198.34 368.35)" gradientUnits="userSpaceOnUse">
<stop stop-color="#CC4E00"/>
<stop offset="1" stop-color="#661414"/>
</radialGradient>
<radialGradient id="paint23_radial_1807_12528" cx="0" cy="0" r="1" gradientTransform="matrix(4.40129 17.0873 -13.6032 3.94593 224.692 372.794)" gradientUnits="userSpaceOnUse">
<stop stop-color="#CC4E00"/>
<stop offset="1" stop-color="#661414"/>
</radialGradient>
<radialGradient id="paint24_radial_1807_12528" cx="0" cy="0" r="1" gradientTransform="matrix(8.06249 14.8232 -11.8007 7.22835 252.176 373.785)" gradientUnits="userSpaceOnUse">
<stop stop-color="#CC4E00"/>
<stop offset="1" stop-color="#661414"/>
</radialGradient>
<radialGradient id="paint25_radial_1807_12528" cx="0" cy="0" r="1" gradientTransform="matrix(11.1756 12.3402 -9.82404 10.0193 276.484 367.927)" gradientUnits="userSpaceOnUse">
<stop stop-color="#CC4E00"/>
<stop offset="1" stop-color="#661414"/>
</radialGradient>
</defs>
</svg>
