<svg width="512" height="512" viewBox="0 0 512 512" fill="none" xmlns="http://www.w3.org/2000/svg">
<circle cx="256" cy="256" r="256" fill="#550C72"/>
<path d="M315.426 320C279.046 314.817 237.998 250.71 291.974 229.998C301.475 237.917 298.456 252.225 322.787 250.202C334.606 253.97 338.465 261.206 343.437 269.654C345.851 258.327 340.33 248.674 335.365 239.628C328.084 226.36 353.239 213.584 339.871 199.027C336.513 196.584 336.086 198.336 333.655 198.932C335.261 205.536 333.55 206.706 331.265 208.465C330.781 202.477 329.167 196.472 320.69 196.343C326.187 207.79 317.186 204.663 315.426 209.421C295.712 204.337 287.236 204.209 269.604 212.314C190.255 270.319 248.198 374.068 245.292 380.005L173.96 388.492C154.246 299.854 152.491 220.703 227.278 165.796C227.278 165.796 264.502 129.879 328.205 142.21C437.107 155.824 427.729 336 315.426 320Z" fill="white"/>
<path d="M317.347 234.57C314.556 230 317.347 228.5 316.37 223.191C319.171 225.028 324 222.5 327.059 226.942C329 231 327.352 233.506 326.913 237.705C323.279 236.113 318.453 236.381 317.347 234.57Z" fill="white"/>
<circle cx="321" cy="191" r="4" fill="#550C72"/>
<circle cx="332" cy="190" r="4" fill="#550C72"/>
<circle cx="343" cy="191" r="4" fill="#550C72"/>
<path d="M153 140H303L196.182 227.409L246.561 380.976L249.97 391H153V140Z" fill="white"/>
</svg>
