<svg width="32" height="32" viewBox="0 0 32 32" fill="none" xmlns="http://www.w3.org/2000/svg">
<circle cx="16" cy="16" r="16" fill="#153DB3"/>
<path d="M19.7144 20C17.4406 19.6761 14.8751 15.6694 18.2486 14.3749C18.8425 14.8698 18.6537 15.7641 20.1745 15.6376C20.9131 15.8731 21.1543 16.3254 21.4651 16.8534C21.6159 16.1455 21.2709 15.5421 20.9606 14.9767C20.5055 14.1475 22.0777 13.349 21.2422 12.4392C21.0323 12.2865 21.0056 12.396 20.8537 12.4333C20.9541 12.846 20.8471 12.9191 20.7043 13.0291C20.6741 12.6548 20.5732 12.2795 20.0434 12.2715C20.387 12.9869 19.8244 12.7915 19.7144 13.0888C18.4823 12.7711 17.9525 12.763 16.8505 13.2696C11.8912 16.8949 15.5126 23.3793 15.331 23.7503L10.8727 24.2807C9.64063 18.7408 9.53093 13.794 14.2051 10.3623C14.2051 10.3623 16.5316 8.11743 20.5131 8.88809C27.3194 9.73899 26.7333 21 19.7144 20Z" fill="#FFFEFE"/>
<path d="M19.8344 14.6606C19.66 14.375 19.8344 14.2813 19.7734 13.9495C19.9485 14.0643 20.2502 13.9062 20.4414 14.1839C20.5627 14.4375 20.4597 14.5942 20.4323 14.8566C20.2052 14.7571 19.9035 14.7738 19.8344 14.6606Z" fill="#FFFEFE"/>
<circle cx="20.0625" cy="11.9375" r="0.25" fill="#153DB3"/>
<circle cx="20.75" cy="11.875" r="0.25" fill="#153DB3"/>
<circle cx="21.4375" cy="11.9375" r="0.25" fill="#153DB3"/>
<path d="M9.5625 8.75H18.9375L12.2614 14.2131L15.41 23.811L15.6231 24.4375H9.5625V8.75Z" fill="#FFFEFE"/>
</svg>
