<svg width="200" height="36" viewBox="0 0 200 36" fill="none" xmlns="http://www.w3.org/2000/svg">
<path d="M3.85374 0.390551V3.41239C4.86919 2.32814 5.93417 1.51997 7.04373 0.982871C8.08642 0.495964 9.12663 0.25 10.1644 0.25C11.5909 0.25 12.812 0.679181 13.8299 1.53503C14.8453 2.3934 15.4645 3.49772 15.6824 4.84801C15.8732 6.29367 15.5462 7.7544 14.7017 9.22516C13.711 10.8917 12.1259 12.4126 9.94642 13.783C9.09939 14.3251 7.79664 15.1082 6.03323 16.1322C5.03513 16.7019 4.29459 17.1336 3.81411 17.4273V25.0371C3.81411 25.406 3.99491 25.6871 4.35899 25.8804C4.62152 26.0285 4.94844 26.1163 5.33976 26.1414H0C0.388841 26.1163 0.715765 26.0285 0.980772 25.8804C1.34237 25.6871 1.52565 25.406 1.52565 25.0371V1.53503C1.52565 1.18868 1.34237 0.907575 0.980772 0.69173C0.715765 0.54616 0.388841 0.445767 0 0.390551H3.85374ZM3.85374 17.1663C4.14351 16.9931 4.58932 16.712 5.19116 16.323C7.39542 15.0254 8.90868 14.044 9.72847 13.3814C11.8089 11.7626 12.9828 9.97309 13.2553 8.0104C13.446 6.24348 13.0101 4.75766 11.9476 3.55294C10.8306 2.30304 9.5229 1.67558 8.0245 1.67558C7.27158 1.67558 6.55829 1.85127 5.88463 2.19763C5.13172 2.58665 4.4531 3.14886 3.85374 3.88424V17.1663Z" fill="white"/>
<path d="M17.5674 26.1417C17.9562 26.1166 18.2831 26.0287 18.5482 25.8806C18.9098 25.6874 19.093 25.4063 19.093 25.0373V11.5043C19.093 10.6685 18.9841 10.1038 18.7661 9.80767C18.5482 9.49395 18.1965 9.36092 17.716 9.4061L21.4211 8.67323V16.9456C21.9016 14.0744 22.9071 11.8431 24.4328 10.2494C25.8841 8.80374 27.3602 8.25158 28.8611 8.59292V11.7252C28.2519 11.158 27.5757 10.8718 26.8302 10.8718C25.9584 10.8718 25.1213 11.2031 24.3238 11.8657C23.4768 12.5835 22.8006 13.5624 22.2929 14.8073C21.7307 16.1877 21.4508 17.7563 21.4508 19.5157V25.0373C21.4508 25.4063 21.6316 25.6874 21.9957 25.8806C22.2657 26.0287 22.5926 26.1166 22.9765 26.1417H17.5674Z" fill="white"/>
<path d="M38.2571 21.724C37.8732 22.9764 37.1227 24.0205 36.0082 24.8562C34.8714 25.6669 33.6504 26.071 32.3427 26.071C30.9607 26.071 29.8487 25.6293 29.0041 24.7458C28.2041 23.91 28.0357 22.8659 28.4989 21.6135C28.9348 20.3436 30.3118 19.0686 32.63 17.7886C32.9 17.643 33.3482 17.4221 33.9773 17.126C35.7209 16.2977 36.9642 15.5975 37.7122 15.0277C38.9926 14.079 39.6093 13.0876 39.5648 12.0561C39.5375 11.4136 39.2477 10.8991 38.693 10.51C38.21 10.1687 37.6057 9.99804 36.88 9.99804C36.033 9.99804 35.3197 10.2289 34.7401 10.6908C34.0863 11.2078 33.794 11.8829 33.8683 12.7187C32.5854 11.0999 31.9464 10.2892 31.9464 10.2892C32.256 9.82235 32.7736 9.43082 33.5018 9.11458C34.2275 8.82093 34.9903 8.67285 35.7903 8.67285C36.833 8.67285 37.7048 8.90376 38.4057 9.36556C39.223 9.92777 39.7183 10.7259 39.8917 11.7549C40.0824 12.9345 39.4905 14.074 38.1184 15.1783C37.727 15.4996 36.8552 16.0392 35.503 16.7947C34.4132 17.4121 33.6009 17.889 33.0659 18.2303C31.4932 19.2342 30.5842 20.2883 30.3415 21.3927C30.1236 22.3314 30.4134 23.1395 31.2133 23.8222C31.9662 24.4848 32.8876 24.8161 33.9773 24.8161C35.1587 24.8161 36.1494 24.3894 36.9494 23.5311C37.8732 22.5271 38.3363 21.0689 38.3363 19.1539V18.2704C38.3363 17.0456 38.5865 15.9915 39.0892 15.1081C39.431 14.5208 39.9536 13.9435 40.6545 13.3813V23.8925C40.6545 24.5099 40.7486 24.9868 40.9418 25.3281C41.1845 25.7246 41.5857 25.9957 42.1405 26.1413H38.2571V21.724Z" fill="white"/>
<path d="M47.5541 8.74319C46.972 8.40186 46.4742 7.70412 46.0581 6.64498C45.7461 5.81673 45.5925 5.12904 45.5925 4.58691H47.9107V8.74319H51.9031V9.07449H47.9107V24.264C47.9107 24.6329 48.0692 24.9768 48.3862 25.298C48.7478 25.6871 49.1837 25.8803 49.6939 25.8803C50.7564 25.8803 51.8338 24.9642 52.9235 23.1295L53.7557 24.9969C52.5719 25.8351 51.4004 26.2518 50.2388 26.2518C48.8841 26.2518 47.7819 25.6871 46.9299 24.5551C46.0383 23.3856 45.5925 21.7542 45.5925 19.666V9.07449H42.9375V8.74319H47.5541Z" fill="white"/>
<path d="M60.1794 8.74328C60.2785 8.74328 60.2909 8.74328 60.219 8.74328C59.0302 8.89136 58.5448 9.27286 58.7627 9.88777L62.6858 22.979C62.6858 22.979 63.035 21.4832 63.736 18.4915C64.5136 15.3266 65.0238 13.3287 65.2616 12.498C65.5241 11.5417 65.6207 10.7562 65.5489 10.1387C65.4028 9.25529 64.8975 8.77842 64.0332 8.70312H68.8974C68.8974 8.70312 68.8701 8.70312 68.8181 8.70312C68.3352 8.80352 67.8894 9.0018 67.4807 9.29545C66.7006 9.85765 66.1433 10.7411 65.8065 11.9458C65.2517 14.0014 64.3205 17.7034 63.0128 23.0493C62.8394 23.7119 62.7676 24.3745 62.7948 25.0371C62.8196 25.4337 62.8939 25.9858 63.0128 26.6936C63.1316 27.3562 63.1911 27.8582 63.1911 28.1995C63.2158 28.7617 63.1713 29.3264 63.0524 29.8961C62.7601 31.0733 62.1905 32.0044 61.3385 32.6871C60.546 33.3497 59.6271 33.681 58.5844 33.681C56.9845 33.681 55.5827 32.9581 54.374 31.5125L55.7511 28.6814C56.0681 29.8786 56.6254 30.8348 57.4253 31.5526C58.1708 32.2353 58.9708 32.5766 59.8228 32.5766C60.858 32.5766 61.6803 32.0747 62.2896 31.0707C62.9632 29.8459 63.035 28.5559 62.5075 27.2056C62.3341 26.8367 62.032 26.297 61.5961 25.5893C61.0859 24.7811 60.7738 24.1687 60.6549 23.7521C60.5361 23.338 60.3181 22.6026 60.0011 21.5434C57.8464 14.531 56.7071 10.7888 56.5832 10.3195C56.4644 9.88526 56.286 9.55647 56.0483 9.3356C55.6842 9.01434 55.1022 8.81858 54.3047 8.74328H60.1794Z" fill="white"/>
<path d="M80.3606 21.724C79.9767 22.9764 79.2262 24.0205 78.1117 24.8562C76.9749 25.6669 75.7539 26.071 74.4462 26.071C73.0642 26.071 71.9522 25.6293 71.1076 24.7458C70.3077 23.91 70.1392 22.8659 70.6024 21.6135C71.0383 20.3436 72.4153 19.0686 74.7335 17.7886C75.0035 17.643 75.4518 17.4221 76.0808 17.126C77.8244 16.2977 79.0677 15.5975 79.8157 15.0277C81.0962 14.079 81.7128 13.0876 81.6683 12.0561C81.641 11.4136 81.3513 10.8991 80.7965 10.51C80.3135 10.1687 79.7092 9.99804 78.9835 9.99804C78.1365 9.99804 77.4232 10.2289 76.8437 10.6908C76.1898 11.2078 75.8976 11.8829 75.9719 12.7187C74.6889 11.0999 74.0499 10.2892 74.0499 10.2892C74.3595 9.82235 74.8772 9.43082 75.6053 9.11458C76.331 8.82093 77.0938 8.67285 77.8938 8.67285C78.9365 8.67285 79.8083 8.90376 80.5092 9.36556C81.3265 9.92777 81.8218 10.7259 81.9952 11.7549C82.1859 12.9345 81.594 14.074 80.2219 15.1783C79.8306 15.4996 78.9588 16.0392 77.6065 16.7947C76.5167 17.4121 75.7044 17.889 75.1694 18.2303C73.5967 19.2342 72.6878 20.2883 72.445 21.3927C72.2271 22.3314 72.5169 23.1395 73.3168 23.8222C74.0698 24.4848 74.9911 24.8161 76.0808 24.8161C77.2622 24.8161 78.2529 24.3894 79.0529 23.5311C79.9767 22.5271 80.4398 21.0689 80.4398 19.1539V18.2704C80.4398 17.0456 80.69 15.9915 81.1927 15.1081C81.5345 14.5208 82.0571 13.9435 82.758 13.3813V23.8925C82.758 24.5099 82.8521 24.9868 83.0453 25.3281C83.288 25.7246 83.6893 25.9957 84.244 26.1413H80.3606V21.724Z" fill="white"/>
<path d="M90.4892 24.3039C88.8446 25.4284 87.7896 26.6431 87.3289 27.9482C86.9178 29.1178 86.9772 30.2573 87.5072 31.3616C88.0422 32.3906 88.8768 33.2389 90.0136 33.9015C91.1554 34.5641 92.3764 34.8954 93.6792 34.8954C94.8209 34.8954 95.8512 34.6369 96.7701 34.1224C98.5137 33.1436 99.4449 31.8083 99.5638 30.1167C99.6629 28.7438 99.2493 27.3961 98.3254 26.0709C97.4784 24.8938 96.671 24.2914 95.8983 24.2638L100.069 24.0429C100.867 25.4434 101.134 26.9744 100.871 28.6409C100.606 30.2121 99.9031 31.6251 98.7613 32.8775C97.8152 33.9015 96.6933 34.6972 95.393 35.2669C94.2042 35.7538 92.956 35.9998 91.6483 35.9998C89.8304 35.9998 88.2948 35.558 87.0416 34.6746C85.7339 33.7635 85.0652 32.5989 85.0404 31.1809C85.0206 29.68 85.7364 28.1716 87.1902 26.6531C88.3245 25.476 90.0161 24.191 92.2625 22.798C92.9882 22.3563 93.6321 21.8795 94.1943 21.3624C93.5603 21.5582 92.9064 21.6536 92.2328 21.6536C90.296 21.6536 88.7703 20.991 87.6558 19.6658C86.6652 18.4887 86.1698 17.043 86.1698 15.3288C86.1946 13.6372 86.7147 12.2015 87.7252 11.0219C88.8397 9.72434 90.343 9.08935 92.2328 9.11445C92.2328 9.11445 92.364 9.1019 92.629 9.07429C92.9188 9.00151 93.1591 8.89107 93.3522 8.74299C93.642 8.52213 93.8228 8.25107 93.8971 7.92981C93.9689 7.48808 93.8723 6.96352 93.6098 6.35363H95.4228L95.4624 6.31348C95.4624 7.17184 95.185 7.85702 94.6302 8.37154C94.2389 8.74048 93.7312 8.999 93.1046 9.14457C94.9398 9.36543 96.3292 10.2263 97.2753 11.7247C98.1471 13.1452 98.474 14.6863 98.2561 16.3528C98.0109 18.1197 97.2481 19.4951 95.9676 20.479C95.5837 20.9207 95.029 21.4001 94.3033 21.9146C93.8401 22.2107 93.1368 22.6525 92.1931 23.2398C91.3932 23.7292 90.826 24.0831 90.4892 24.3039ZM92.2625 9.255C91.034 9.255 90.0434 9.89501 89.2905 11.1725C88.6094 12.3245 88.2701 13.72 88.2701 15.3589C88.2502 17.033 88.5673 18.4309 89.2211 19.5553C89.9666 20.8354 90.9796 21.4729 92.2625 21.4729C93.5231 21.4729 94.541 20.8354 95.3138 19.5553C95.9924 18.4058 96.3441 17.0054 96.3639 15.3589C96.3887 13.6924 96.0667 12.2969 95.393 11.1725C94.6129 9.89501 93.5702 9.255 92.2625 9.255Z" fill="white"/>
<path d="M100.249 26.1417C100.638 26.1166 100.965 26.0287 101.23 25.8806C101.591 25.6874 101.775 25.4063 101.775 25.0373V11.5043C101.775 10.6685 101.666 10.1038 101.448 9.80767C101.23 9.49395 100.878 9.36092 100.398 9.4061L104.103 8.67323V16.9456C104.583 14.0744 105.589 11.8431 107.114 10.2494C108.566 8.80374 110.042 8.25158 111.543 8.59292V11.7252C110.933 11.158 110.257 10.8718 109.512 10.8718C108.64 10.8718 107.803 11.2031 107.005 11.8657C106.158 12.5835 105.482 13.5624 104.975 14.8073C104.412 16.1877 104.132 17.7563 104.132 19.5157V25.0373C104.132 25.4063 104.313 25.6874 104.677 25.8806C104.947 26.0287 105.274 26.1166 105.658 26.1417H100.249Z" fill="white"/>
<path d="M120.939 21.724C120.555 22.9764 119.804 24.0205 118.69 24.8562C117.553 25.6669 116.332 26.071 115.024 26.071C113.642 26.071 112.53 25.6293 111.686 24.7458C110.886 23.91 110.717 22.8659 111.181 21.6135C111.616 20.3436 112.993 19.0686 115.312 17.7886C115.582 17.643 116.03 17.4221 116.659 17.126C118.403 16.2977 119.646 15.5975 120.394 15.0277C121.674 14.079 122.291 13.0876 122.246 12.0561C122.219 11.4136 121.929 10.8991 121.375 10.51C120.892 10.1687 120.287 9.99804 119.562 9.99804C118.715 9.99804 118.001 10.2289 117.422 10.6908C116.768 11.2078 116.476 11.8829 116.55 12.7187C115.267 11.0999 114.628 10.2892 114.628 10.2892C114.938 9.82235 115.455 9.43082 116.183 9.11458C116.909 8.82093 117.672 8.67285 118.472 8.67285C119.515 8.67285 120.386 8.90376 121.087 9.36556C121.905 9.92777 122.4 10.7259 122.573 11.7549C122.764 12.9345 122.172 14.074 120.8 15.1783C120.409 15.4996 119.537 16.0392 118.185 16.7947C117.095 17.4121 116.283 17.889 115.748 18.2303C114.175 19.2342 113.266 20.2883 113.023 21.3927C112.805 22.3314 113.095 23.1395 113.895 23.8222C114.648 24.4848 115.569 24.8161 116.659 24.8161C117.84 24.8161 118.831 24.3894 119.631 23.5311C120.555 22.5271 121.018 21.0689 121.018 19.1539V18.2704C121.018 17.0456 121.268 15.9915 121.771 15.1081C122.113 14.5208 122.635 13.9435 123.336 13.3813V23.8925C123.336 24.5099 123.43 24.9868 123.623 25.3281C123.866 25.7246 124.267 25.9957 124.822 26.1413H120.939V21.724Z" fill="white"/>
<path d="M150.851 12.1663C153.249 13.5869 154.797 15.1656 155.498 16.9049C156.124 18.4309 156.053 19.9418 155.28 21.4326C154.552 22.8055 153.353 23.9324 151.684 24.8159C150.012 25.6994 148.209 26.1411 146.275 26.1411C144.095 26.1411 142.124 25.5538 140.36 24.3742C138.352 23.049 136.804 21.0762 135.714 18.451C135.714 18.451 136.63 16.9451 138.468 13.9333C138.032 15.133 137.923 16.4531 138.141 17.8988C138.312 19.0307 138.617 19.9368 139.052 20.6195C140.187 22.3412 141.504 23.6162 143.005 24.4444C144.338 25.2074 145.742 25.5889 147.216 25.5889C148.694 25.5889 150.039 25.2225 151.248 24.4846C152.456 23.7768 153.291 22.8557 153.754 21.7238C154.262 20.5467 154.262 19.3595 153.754 18.1598C153.172 16.8095 152.001 15.6073 150.237 14.5557C147.931 13.1853 145.571 11.835 143.154 10.5099C141.826 9.67408 140.93 8.64254 140.469 7.41774C140.078 6.34103 140.078 5.22666 140.469 4.07465C140.858 2.9904 141.534 2.09439 142.5 1.38411C143.515 0.64873 144.655 0.279785 145.918 0.279785C147 0.279785 148.063 0.560886 149.108 1.12309C149.034 3.53253 148.999 4.74728 148.999 4.76736C148.925 3.34931 148.563 2.27259 147.909 1.5347C147.354 0.899714 146.641 0.580965 145.769 0.580965C144.68 0.580965 143.649 1.02019 142.678 1.89612C141.74 2.83479 141.341 3.87888 141.48 5.02839C141.651 6.35358 142.609 7.51814 144.353 8.52207C146.552 9.72177 148.717 10.9466 150.851 12.1965V12.1663Z" fill="white"/>
<path d="M157.742 26.1415C158.104 26.0963 158.421 25.9984 158.693 25.8503C159.03 25.6495 159.198 25.3935 159.198 25.0773V11.5744C159.198 10.7386 159.09 10.1764 158.872 9.88779C158.654 9.56653 158.302 9.431 157.821 9.47618L161.517 8.74331V25.0371C161.517 25.4061 161.697 25.6872 162.062 25.8804C162.351 26.0285 162.691 26.1164 163.082 26.1415H157.742ZM160.358 3.33211C159.875 3.33211 159.535 3.12631 159.337 2.70967C159.144 2.34324 159.144 1.97429 159.337 1.60535C159.535 1.19123 159.875 0.98291 160.358 0.98291C160.838 0.98291 161.18 1.19123 161.378 1.60535C161.569 1.97429 161.569 2.34324 161.378 2.70967C161.18 3.12631 160.838 3.33211 160.358 3.33211Z" fill="white"/>
<path d="M164.529 26.1414C164.891 26.0962 165.218 25.9983 165.51 25.8502C165.899 25.6494 166.095 25.3934 166.095 25.0772V3.26175C166.095 2.42598 165.986 1.86127 165.768 1.56511C165.55 1.25138 165.198 1.11836 164.718 1.16353L168.413 0.430664V25.037C168.413 25.406 168.594 25.6871 168.958 25.8804C169.228 26.0284 169.555 26.1163 169.938 26.1414H164.529Z" fill="white"/>
<path d="M171.389 26.1413C171.778 26.1162 172.117 26.0284 172.409 25.8803C172.771 25.6871 172.954 25.406 172.954 25.037V3.15128C172.927 2.34312 172.805 1.7759 172.587 1.45464C172.369 1.16099 172.018 1.04052 171.537 1.09322L175.242 0.360352V25.037C175.242 25.406 175.423 25.6871 175.787 25.8803C176.077 26.0284 176.414 26.1162 176.798 26.1413H171.389ZM177.63 16.2124C175.693 16.5814 175.213 15.9916 176.184 14.4455C176.763 13.4893 177.623 12.4828 178.759 11.4237C179.822 10.475 180.426 9.7421 180.572 9.22508C180.644 8.9515 180.585 8.76829 180.394 8.67291H184.347C183.599 8.74821 182.732 9.0519 181.741 9.58649C180.77 10.0759 179.871 10.7009 179.047 11.4638C177.863 12.5431 176.996 13.4767 176.441 14.2648C175.396 15.7306 175.748 16.3078 177.491 15.9916C178.408 15.8184 179.208 15.9665 179.889 16.4333C180.468 16.8223 180.988 17.4724 181.444 18.3809C181.714 18.9231 182.078 19.8166 182.534 21.0614C183.113 22.6075 183.599 23.6993 183.99 24.3343C184.617 25.3658 185.367 25.9907 186.239 26.2116C186.046 26.2116 185.768 26.2242 185.407 26.2518C184.362 26.2969 183.636 26.2744 183.227 26.1815C182.618 26.0083 182.123 25.5766 181.741 24.8864C181.496 24.4246 181.3 23.8122 181.157 23.0492C181.058 22.5874 180.961 21.8646 180.869 20.8807C180.743 19.7312 180.622 18.898 180.503 18.3809C180.31 17.5452 180.008 16.9554 179.591 16.614C179.136 16.1999 178.482 16.0669 177.63 16.2124Z" fill="white"/>
<path d="M196.546 16.574C198.699 17.854 199.848 19.2896 199.994 20.8808C200.066 22.3265 199.449 23.5513 198.141 24.5552C196.787 25.5868 195.224 26.1013 193.455 26.1013C191.955 26.1013 190.602 25.6972 189.394 24.8865C188.012 23.983 186.959 22.6352 186.233 20.8407C186.233 20.8407 186.981 19.6159 188.482 17.1663C188.118 18.1702 188.059 19.1741 188.304 20.1781C188.522 21.1168 188.98 21.9902 189.681 22.7983C190.434 23.6768 191.281 24.3494 192.227 24.8162C193.072 25.2128 193.916 25.4086 194.763 25.4086C196.024 25.4086 197.054 25.0421 197.854 24.3042C198.652 23.5413 198.944 22.6578 198.726 21.6539C198.481 20.5244 197.596 19.5054 196.071 18.6019C194.525 17.6733 192.916 16.7522 191.246 15.8411C190.01 15.058 189.334 14.0541 189.215 12.8293C189.116 11.725 189.465 10.7185 190.265 9.80746C191.063 8.90392 192.054 8.45215 193.237 8.45215C193.916 8.45215 194.619 8.63788 195.348 9.00431C195.301 10.6181 195.278 11.4388 195.278 11.4639C195.152 10.5353 194.872 9.83507 194.436 9.36573C194.025 8.9516 193.53 8.74329 192.95 8.74329C192.202 8.74329 191.526 9.03945 190.919 9.62675C190.31 10.2642 190.07 10.962 190.196 11.725C190.315 12.6084 190.942 13.3815 192.078 14.0441C193.604 14.8748 195.093 15.7181 196.546 16.574Z" fill="white"/>
<mask id="mask0_316_842" style="mask-type:luminance" maskUnits="userSpaceOnUse" x="156" y="4" width="3" height="4">
<path d="M156.626 4.23682H158.848V7.71042H156.626V4.23682Z" fill="white"/>
</mask>
<g mask="url(#mask0_316_842)">
<path fill-rule="evenodd" clip-rule="evenodd" d="M158.383 11.5832C158.383 11.5832 156.783 8.53121 152.728 7.51222C148.674 6.49323 149.051 7.02531 145.373 5.81306C142.74 4.91956 142.45 4.50293 142.45 4.50293C142.45 4.50293 145.994 6.06153 151.309 6.06153C155.019 6.20961 158.858 8.38815 158.383 11.5832Z" fill="black"/>
</g>
<mask id="mask1_316_842" style="mask-type:luminance" maskUnits="userSpaceOnUse" x="157" y="0" width="6" height="5">
<path d="M157.941 0H162.211V4.39722H157.941V0Z" fill="white"/>
</mask>
<g mask="url(#mask1_316_842)">
<mask id="mask2_316_842" style="mask-type:luminance" maskUnits="userSpaceOnUse" x="157" y="-1" width="6" height="6">
<path d="M160.076 -0.00244141C158.897 -0.00244141 157.941 0.981412 157.941 2.19617C157.941 3.41093 158.897 4.39729 160.076 4.39729C161.255 4.39729 162.211 3.41093 162.211 2.19617C162.211 0.981412 161.255 -0.00244141 160.076 -0.00244141Z" fill="white"/>
</mask>
<g mask="url(#mask2_316_842)">
<mask id="mask3_316_842" style="mask-type:luminance" maskUnits="userSpaceOnUse" x="157" y="-1" width="6" height="6">
<path d="M160.076 -0.00244141C158.897 -0.00244141 157.941 0.981412 157.941 2.19617C157.941 3.41093 158.897 4.39729 160.076 4.39729C161.255 4.39729 162.211 3.41093 162.211 2.19617C162.211 0.981412 161.255 -0.00244141 160.076 -0.00244141Z" fill="white"/>
</mask>
<g mask="url(#mask3_316_842)">
<path d="M157.941 -0.00244141H162.211V4.39729H157.941V-0.00244141Z" fill="#E80B03"/>
</g>
</g>
</g>
<mask id="mask4_316_842" style="mask-type:luminance" maskUnits="userSpaceOnUse" x="156" y="3" width="8" height="5">
<path d="M156.634 3.12451H163.502V7.61209H156.634V3.12451Z" fill="white"/>
</mask>
<g mask="url(#mask4_316_842)">
<path d="M163.506 4.07825C163.506 6.0309 161.971 7.6146 160.076 7.6146C158.182 7.6146 156.644 6.0309 156.644 4.07825C156.644 3.74695 156.688 3.4282 156.772 3.12451C157.176 4.61284 158.501 5.70713 160.076 5.70713C161.649 5.70713 162.976 4.61284 163.38 3.12451C163.462 3.4282 163.506 3.74695 163.506 4.07825Z" fill="#E80B03"/>
</g>
</svg>
